<svg version="1.1" xmlns="http://www.w3.org/2000/svg" xmlns:xlink="http://www.w3.org/1999/xlink" width="59.44444" height="58.80526" viewBox="0,0,59.44444,58.80526"><defs><radialGradient cx="318.93707" cy="181.85677" r="29.72222" gradientUnits="userSpaceOnUse" id="color-1"><stop offset="0" stop-color="#bdd6db"/><stop offset="1" stop-color="#000000" stop-opacity="0.33725"/></radialGradient><radialGradient cx="319.07615" cy="181.61383" r="25.83333" gradientUnits="userSpaceOnUse" id="color-2"><stop offset="0" stop-color="#1dff00"/><stop offset="1" stop-color="#fbff00"/></radialGradient></defs><g transform="translate(-290.27778,-150.59737)"><g data-paper-data="{&quot;isPaintingLayer&quot;:true}" fill-rule="nonzero" stroke="none" stroke-width="0" stroke-linecap="butt" stroke-linejoin="miter" stroke-miterlimit="10" stroke-dasharray="" stroke-dashoffset="0" style="mix-blend-mode: normal"><path d="M349.72222,180c0,16.23862 -13.3071,29.40263 -29.72222,29.40263c-16.41513,0 -29.72222,-13.164 -29.72222,-29.40263c0,-16.23862 13.3071,-29.40263 29.72222,-29.40263c16.41513,0 29.72222,13.164 29.72222,29.40263z" fill="url(#color-1)"/><path d="M345.83333,180c0,14.11394 -11.56598,25.55556 -25.83333,25.55556c-14.26736,0 -25.83333,-11.44161 -25.83333,-25.55556c0,-14.11394 11.56598,-25.55556 25.83333,-25.55556c14.26736,0 25.83333,11.44161 25.83333,25.55556z" fill="url(#color-2)"/></g></g></svg>